<?xml version="1.0" encoding="UTF-8" standalone="no"?>
<svg
   version="1.1"
   viewBox="0 0 32 32"
   id="svg17"
   sodipodi:docname="klipper.svg"
   inkscape:version="1.1.2 (0a00cf5339, 2022-02-04)"
   xmlns:inkscape="http://www.inkscape.org/namespaces/inkscape"
   xmlns:sodipodi="http://sodipodi.sourceforge.net/DTD/sodipodi-0.dtd"
   xmlns="http://www.w3.org/2000/svg"
   xmlns:svg="http://www.w3.org/2000/svg"
   xmlns:rdf="http://www.w3.org/1999/02/22-rdf-syntax-ns#"
   xmlns:cc="http://creativecommons.org/ns#"
   xmlns:dc="http://purl.org/dc/elements/1.1/">
  <sodipodi:namedview
     id="namedview13"
     pagecolor="#ffffff"
     bordercolor="#666666"
     borderopacity="1.0"
     inkscape:pageshadow="2"
     inkscape:pageopacity="0.0"
     inkscape:pagecheckerboard="0"
     showgrid="false"
     inkscape:zoom="19.84375"
     inkscape:cx="16"
     inkscape:cy="16.025197"
     inkscape:window-width="1920"
     inkscape:window-height="986"
     inkscape:window-x="0"
     inkscape:window-y="0"
     inkscape:window-maximized="1"
     inkscape:current-layer="svg17" />
  <metadata
     id="metadata21">
    <rdf:RDF>
      <cc:Work
         rdf:about="">
        <dc:format>image/svg+xml</dc:format>
        <dc:type
           rdf:resource="http://purl.org/dc/dcmitype/StillImage" />
      </cc:Work>
    </rdf:RDF>
  </metadata>
  <defs
     id="defs3">
    <style
       id="current-color-scheme"
       type="text/css">.ColorScheme-Text { color:#363636; }</style>
  </defs>
  <g
     id="22-22-klipper"
     class="ColorScheme-Text"
     fill="currentColor">
    <path
       d="m49 5h22v22h-22z"
       fill="none"
       id="path5" />
    <g
       transform="translate(-41 -1)"
       id="g9">
      <path
         d="M 100.94922,8.0000001 A 2,2 0 0 0 98.998047,9.9999999 H 98 97 C 95.338,9.9999999 94,11.338 94,13 v 9 c 0,1.662 1.338,3 3,3 h 8 c 1.662,0 3,-1.338 3,-3 v -9 c 0,-1.662 -1.338,-3.0000001 -3,-3.0000001 h -1 -1.00195 a 2,2 0 0 0 -2,-1.9999998 2,2 0 0 0 -0.0488,0 z m 0.0488,1 a 1,1 0 0 1 1,0.9999998 1,1 0 0 1 0,0.01172 c -0.002,0.13009 -0.0275,0.253577 -0.0742,0.367187 a 1,1 0 0 1 -0.006,0.01758 1,1 0 0 1 -0.002,0.0039 c -0.0496,0.11313 -0.1194,0.216134 -0.20508,0.302734 a 1,1 0 0 1 -0.008,0.0078 c -0.088,0.08707 -0.19327,0.157271 -0.3086,0.207031 l -0.002,0.002 a 1,1 0 0 1 -0.006,0.002 c -10e-4,5.36e-4 -0.003,0.0014 -0.004,0.002 -0.11748,0.04914 -0.24687,0.07617 -0.38281,0.07617 a 1,1 0 0 1 -0.002,0 c -0.13241,-2.59e-4 -0.25746,-0.02723 -0.37305,-0.07422 a 1,1 0 0 1 -0.0234,-0.0098 c -0.11373,-0.04967 -0.2177,-0.119018 -0.30468,-0.205078 -6.6e-4,-6.36e-4 -0.003,-0.0033 -0.004,-0.0039 l -0.002,-0.002 -0.002,-0.002 c -0.0871,-0.08802 -0.15727,-0.193263 -0.20703,-0.308594 -9.4e-4,-0.0022 -0.003,-0.0056 -0.004,-0.0078 a 1,1 0 0 1 -0.002,-0.0039 C 100.02737,10.264663 100,10.13594 100,9.9999999 h -0.002 a 1,1 0 0 1 1.00005,-0.9999998 z M 97,12 h 1 c 0,0.554 0.446,1 1,1 h 4 c 0.554,0 1,-0.446 1,-1 h 1 c 0.554,0 1,0.446 1,1 v 9 c 0,0.554 -0.446,1 -1,1 h -8 c -0.554,0 -1,-0.446 -1,-1 v -9 c 0,-0.554 0.446,-1 1,-1 z"
         id="path7" />
    </g>
  </g>
  <g
     id="klipper"
     class="ColorScheme-Text"
     fill="currentColor">
    <rect
       x="-2.8954e-08"
       y="-1e-06"
       width="32"
       height="32"
       fill="none"
       id="rect12" />
    <path
       d="m 15.949,4 a 3,3 0 0 0 -2.9492,3 h -4 c -1.662,0 -3,1.338 -3,3 v 15 c 0,1.662 1.338,3 3,3 h 14 c 1.662,0 3,-1.338 3,-3 V 10 c 0,-1.662 -1.338,-3 -3,-3 h -4 a 3,3 0 0 0 -3,-3 3,3 0 0 0 -0.05078,0 z m 0.05078,2 a 1,1 0 0 1 1,1 1,1 0 0 1 -1,1 A 1,1 0 0 1 15.9158,7.99609 1,1 0 0 1 14.99978,7 a 1,1 0 0 1 1,-1 z m -7,3 h 2 v 1 c 0,0.554 0.446,1 1,1 h 8 c 0.554,0 1,-0.446 1,-1 V 9 h 2 c 0.554,0 1,0.446 1,1 v 15 c 0,0.554 -0.446,1 -1,1 h -14 c -0.554,0 -1,-0.446 -1,-1 V 10 c 0,-0.554 0.446,-1 1,-1 z"
       id="path14"
       fill="currentColor" />
  </g>
</svg>
